<svg width="33" height="40" viewBox="0 0 33 40" fill="none" xmlns="http://www.w3.org/2000/svg">
<path d="M21.3703 24.4483L25.6751 14.5871C25.8126 14.2721 26.1201 14.0607 26.468 14.0408C27.3864 13.9889 29.1504 13.7736 29.6035 12.8605C30.7728 10.5078 29.288 9.12013 26.0432 8.9048C25.586 8.8729 25.2098 8.52598 25.1815 8.07538C25.1329 7.3018 24.7526 6.15736 23.0655 5.49144C21.9286 5.04483 20.3872 5.21231 19.5376 5.35985C19.1896 5.41966 18.8295 5.28409 18.6272 4.99698C18.34 4.59424 17.81 4.028 16.9199 3.63323C14.6583 2.63634 11.9274 2.79186 11.4055 4.27523C11.3529 4.42676 11.365 4.59025 11.3812 4.74975C11.4338 5.27611 8.43989 3.96819 6.62332 5.87425C5.57545 6.97083 6.80942 8.62567 8.01912 9.27963C8.38729 9.47901 8.57744 9.88574 8.47225 10.2845L6.04881 19.3961C5.86675 20.0859 6.2066 20.8037 6.85797 21.1107C8.24164 21.7527 9.61722 21.6132 11.7736 22.1954C14.3994 22.9012 18.8943 24.7315 20.3629 24.9867C20.7877 25.0584 21.2044 24.8351 21.3703 24.4483Z" fill="#313131" stroke="#313131" stroke-width="5" stroke-miterlimit="10"/>
<path d="M11 38.0631C11 38.5826 10.3279 39 9.5 39C8.67208 39 8 38.5826 8 38.0631C8 37.8034 8.68669 38.4295 9.43669 38.4295C10.1916 38.4295 11 37.808 11 38.0631Z" fill="#313131" stroke="#313131" stroke-miterlimit="10"/>
<path d="M9.39565 35.1022C9.39565 35.1022 8.56199 39.0104 4.10071 38.998C1.66992 38.9898 -1.09517 35.9193 0.444199 32.8406C0.444199 32.8406 0.856898 34.4047 3.0442 35.0238C6.03627 35.8698 9.39565 32.8406 9.39565 32.8406V35.1022Z" fill="#313131"/>
<path d="M9.39575 35.1022C9.39575 35.1022 10.2294 39.0104 14.6907 38.998C17.1215 38.9898 19.8866 35.9193 18.3472 32.8406C18.3472 32.8406 17.9345 34.4047 15.7472 35.0238C12.7551 35.8698 9.39575 32.8406 9.39575 32.8406V35.1022Z" fill="#313131"/>
<path d="M8 29.8745C8 30.1865 6.6559 29.8185 5 29.8185C3.3441 29.8185 2 30.1865 2 29.8745C2 29.5626 3.3441 29 5 29C6.6559 29 8 29.5626 8 29.8745Z" fill="#313131"/>
<path d="M17 29.8745C17 30.1865 15.6559 29.8185 14 29.8185C12.3441 29.8185 11 30.1865 11 29.8745C11 29.5626 12.3441 29 14 29C15.6559 29 17 29.5626 17 29.8745Z" fill="#313131"/>
</svg>
