<svg width="20" height="20" viewBox="0 0 20 20" fill="none" xmlns="http://www.w3.org/2000/svg">
<g clip-path="url(#clip0)">
<path d="M12.5 10.8333C12.0392 10.8333 11.6667 11.2067 11.6667 11.6667V15C11.6667 15.4592 11.2933 15.8333 10.8333 15.8333H8.33333V3.33333C8.33333 2.62167 7.88 1.98583 7.19833 1.74917L6.95167 1.66667H10.8333C11.2933 1.66667 11.6667 2.04083 11.6667 2.5V5C11.6667 5.46 12.0392 5.83333 12.5 5.83333C12.9608 5.83333 13.3333 5.46 13.3333 5V2.5C13.3333 1.12167 12.2117 0 10.8333 0H1.875C1.84333 0 1.81667 0.0141667 1.78583 0.0183333C1.74583 0.015 1.7075 0 1.66667 0C0.7475 0 0 0.7475 0 1.66667V16.6667C0 17.3783 0.453333 18.0142 1.135 18.2508L6.15 19.9225C6.32 19.975 6.48917 20 6.66667 20C7.58583 20 8.33333 19.2525 8.33333 18.3333V17.5H10.8333C12.2117 17.5 13.3333 16.3783 13.3333 15V11.6667C13.3333 11.2067 12.9608 10.8333 12.5 10.8333Z" fill="#ffffff"/>
<path d="M19.7558 7.74416L16.4224 4.41083C16.1841 4.17249 15.8258 4.10083 15.5141 4.22999C15.2033 4.35916 14.9999 4.66333 14.9999 4.99999V7.49999H11.6666C11.2066 7.49999 10.8333 7.87333 10.8333 8.33333C10.8333 8.79333 11.2066 9.16666 11.6666 9.16666H14.9999V11.6667C14.9999 12.0033 15.2033 12.3075 15.5141 12.4367C15.8258 12.5658 16.1841 12.4942 16.4224 12.2558L19.7558 8.92249C20.0816 8.59666 20.0816 8.06999 19.7558 7.74416Z" fill="#ffffff"/>
</g>
<defs>
<clipPath id="clip0">
<rect width="20" height="20" fill="white"/>
</clipPath>
</defs>
</svg>
