<svg width="40" height="48" viewBox="0 0 40 48" fill="none" xmlns="http://www.w3.org/2000/svg">
<path d="M26.2622 30.0804L31.6526 17.5582C31.8247 17.1584 32.2094 16.8901 32.6447 16.8648C33.7936 16.799 36.0005 16.5257 36.5673 15.3666C38.0301 12.3804 36.1725 10.619 32.1132 10.3456C31.5413 10.3051 31.0706 9.8648 31.0351 9.29285C30.9744 8.31092 30.4986 6.85828 28.388 6.01301C26.9657 5.44612 25.0373 5.65871 23.9744 5.84598C23.5391 5.9219 23.0886 5.74981 22.8355 5.38539C22.4762 4.87418 21.8131 4.15545 20.6996 3.65436C17.8702 2.38899 14.4537 2.58639 13.8008 4.46926C13.735 4.66159 13.7502 4.86911 13.7704 5.07157C13.8362 5.73969 10.0907 4.07952 7.81813 6.49891C6.5072 7.89082 8.05096 9.99133 9.56434 10.8214C10.0249 11.0745 10.2628 11.5908 10.1312 12.0969L7.0994 23.6573C6.87163 24.533 7.29679 25.444 8.11169 25.8338C9.84272 26.6487 11.5636 26.4715 14.2614 27.2105C17.5463 28.1064 23.1696 30.4296 25.0069 30.7535C25.5333 30.8497 26.0546 30.5663 26.2622 30.0804Z" fill="white" stroke="white" stroke-width="5" stroke-miterlimit="10"/>
<path d="M13.0821 45.9329C13.0821 46.4998 12.3836 46.9553 11.5232 46.9553C10.6627 46.9553 9.96423 46.4998 9.96423 45.9329C9.96423 45.6495 10.6779 46.3328 11.4574 46.3328C12.2419 46.3328 13.0821 45.6545 13.0821 45.9329Z" fill="white" stroke="white" stroke-miterlimit="10"/>
<path d="M11.5233 42.6126C11.5233 42.6126 10.5008 47.4058 5.02938 47.3906C2.04816 47.3805 -1.34303 43.6147 0.544902 39.8389C0.544902 39.8389 1.05105 41.7572 3.73364 42.5164C7.40321 43.554 11.5233 39.8389 11.5233 39.8389V42.6126Z" fill="white"/>
<path d="M11.5232 42.6126C11.5232 42.6126 12.5456 47.4058 18.0171 47.3906C20.9983 47.3805 24.3895 43.6148 22.5015 39.8389C22.5015 39.8389 21.9954 41.7572 19.3128 42.5164C15.6432 43.554 11.5232 39.8389 11.5232 39.8389V42.6126Z" fill="white"/>
<path d="M9.36697 36.4274C9.36697 37.0196 7.75236 36.3211 5.7632 36.3211C3.77404 36.3211 2.15942 37.0196 2.15942 36.4274C2.15942 35.8352 3.77404 34.7673 5.7632 34.7673C7.75236 34.7673 9.36697 35.8352 9.36697 36.4274Z" fill="white"/>
<path d="M20.887 36.4274C20.887 37.0196 19.2724 36.3211 17.2832 36.3211C15.2941 36.3211 13.6794 37.0196 13.6794 36.4274C13.6794 35.8352 15.2941 34.7673 17.2832 34.7673C19.2724 34.7673 20.887 35.8352 20.887 36.4274Z" fill="white"/>
<path d="M26.2622 30.0804L31.6526 17.5582C31.8247 17.1584 32.2094 16.8901 32.6447 16.8648C33.7936 16.799 36.0005 16.5257 36.5673 15.3666C38.0301 12.3804 36.1725 10.619 32.1132 10.3456C31.5413 10.3051 31.0706 9.8648 31.0351 9.29285C30.9744 8.31092 30.4986 6.85828 28.388 6.01301C26.9657 5.44612 25.0373 5.65871 23.9744 5.84598C23.5391 5.9219 23.0886 5.74981 22.8355 5.38539C22.4762 4.87418 21.8131 4.15545 20.6996 3.65436C17.8702 2.38899 14.4537 2.58639 13.8008 4.46926C13.735 4.66159 13.7502 4.86911 13.7704 5.07157C13.8362 5.73969 10.0907 4.07952 7.81813 6.49891C6.5072 7.89082 8.05096 9.99133 9.56434 10.8214C10.0249 11.0745 10.2628 11.5908 10.1312 12.0969L7.0994 23.6573C6.87163 24.533 7.29679 25.444 8.11169 25.8338C9.84272 26.6487 11.5636 26.4715 14.2614 27.2105C17.5463 28.1064 23.1696 30.4296 25.0069 30.7535C25.5333 30.8497 26.0546 30.5663 26.2622 30.0804Z" fill="white" stroke="white" stroke-width="5" stroke-miterlimit="10"/>
<path d="M11.5231 42.6126C11.5231 42.6126 10.5007 47.4058 5.02925 47.3906C2.04804 47.3805 -1.34315 43.6147 0.54478 39.8389C0.54478 39.8389 1.05093 41.7572 3.73351 42.5164C7.40309 43.554 11.5231 39.8389 11.5231 39.8389V42.6126Z" fill="white"/>
<path d="M11.5232 42.6126C11.5232 42.6126 12.5456 47.4058 18.0171 47.3906C20.9983 47.3805 24.3895 43.6148 22.5015 39.8389C22.5015 39.8389 21.9954 41.7572 19.3128 42.5164C15.6432 43.554 11.5232 39.8389 11.5232 39.8389V42.6126Z" fill="white"/>
<path d="M9.36697 36.4274C9.36697 37.0196 7.75236 36.3211 5.7632 36.3211C3.77404 36.3211 2.15942 37.0196 2.15942 36.4274C2.15942 35.8352 3.77404 34.7673 5.7632 34.7673C7.75236 34.7673 9.36697 35.8352 9.36697 36.4274Z" fill="white"/>
<path d="M20.8869 36.4274C20.8869 37.0196 19.2723 36.3211 17.2831 36.3211C15.2939 36.3211 13.6793 37.0196 13.6793 36.4274C13.6793 35.8352 15.2939 34.7673 17.2831 34.7673C19.2723 34.7673 20.8869 35.8352 20.8869 36.4274Z" fill="white"/>
</svg>
